<?xml version="1.0" encoding="utf-8"?>
<!-- Generator: Adobe Illustrator 26.2.1, SVG Export Plug-In . SVG Version: 6.00 Build 0)  -->
<svg version="1.1" id="a" xmlns="http://www.w3.org/2000/svg" xmlns:xlink="http://www.w3.org/1999/xlink" x="0px" y="0px"
	 viewBox="0 0 562 483.5" style="enable-background:new 0 0 562 483.5;" xml:space="preserve">
<style type="text/css">
	.st0{fill-rule:evenodd;clip-rule:evenodd;fill:#CBE3ED;}
	.st1{fill:#52B2C7;}
	.st2{fill-rule:evenodd;clip-rule:evenodd;fill:#3194BA;}
	.st3{fill:#4892C0;}
	.st4{fill-rule:evenodd;clip-rule:evenodd;fill:#248DB6;}
	.st5{fill-rule:evenodd;clip-rule:evenodd;fill:#B3D5E4;}
	.st6{fill:#85BDD3;}
	.st7{fill-rule:evenodd;clip-rule:evenodd;fill:#FBFDFE;}
	.st8{fill:#248DB6;}
	.st9{fill:#5CA9C6;}
	.st10{fill:#007DAA;}
	.st11{fill-rule:evenodd;clip-rule:evenodd;fill:#037EAB;}
	.st12{fill:#3895BC;}
	.st13{fill:#B3D5E4;}
	.st14{fill:#81BED5;}
	.st15{fill:#A8DAEB;}
	.st16{fill-rule:evenodd;clip-rule:evenodd;fill:#5AA6C1;}
	.st17{fill:#DFF0F5;}
	.st18{fill-rule:evenodd;clip-rule:evenodd;fill:#0096B8;}
	.st19{fill:#489EBF;}
	.st20{fill:#58A8C5;}
	.st21{fill-rule:evenodd;clip-rule:evenodd;fill:#3495B9;}
	.st22{fill:#0079A7;}
	.st23{fill-rule:evenodd;clip-rule:evenodd;fill:#E3F0F6;}
	.st24{fill:#F20505;}
</style>
<g>
	<path class="st0" d="M471.4,148H254.9V2.1c21.6,7.5,22.8,33.1,40.9,35.7c21,3.1,60.1-13.6,71.8-7.4s39,21,58.2,19.8
		c19.2-1.2,16.1,12.4,18,33.4C444.9,95.6,457.3,124.4,471.4,148"/>
	<rect x="290.1" y="166.3" class="st1" width="99.6" height="76.2"/>
	<path class="st2" d="M338.5,96.7H447c9.7,29.1,38.8,82.3,55,86c19.2,4.3,49.5-17.3,57.6-8.1c3.7,4.3,2.9,15.3-2.2,29h-219
		L338.5,96.7L338.5,96.7z"/>
	<path class="st2" d="M338.5,96.7H447c0.1,0.4,0.3,0.8,0.4,1.2l0,0.1l0,0.1l0,0l0.4,1.2l0.1,0.3l0.4,1l0.1,0.2l0,0.1l0.5,1.3l0,0.1
		c0.4,0.9,0.7,1.9,1.1,2.8l0.2,0.4l0.4,0.9l0.1,0.4l0,0.1l0.5,1.3l0.2,0.4l0.5,1.2l0.1,0.1l0.1,0.2l0.5,1.1l0,0l0.4,0.8l0.2,0.6
		l0.3,0.7l0.5,1.1l0,0.1l0.4,0.8l0.3,0.6l0.3,0.8l0.5,1.1l0.1,0.1l0.3,0.6l0.4,0.8l0.4,0.7l0.5,1.2l0.5,1l0.2,0.3l0.5,1l0.6,1.2
		c0.8,1.5,1.5,3.1,2.3,4.6v0c0.6,1.1,1.1,2.2,1.7,3.3l0.2,0.3l0.5,1l0.6,1.2c0.8,1.5,1.7,3.1,2.5,4.6v0c1.5,2.7,3,5.3,4.5,7.9H338.4
		L338.5,96.7L338.5,96.7z"/>
	<rect x="338.5" y="166.3" class="st3" width="51.3" height="37.4"/>
	<path class="st4" d="M339.9,31.9v35.5H180.2V12.7c21.2-8.1,45.1-13,62.4-12.7c34.1,0.6,32.2,34.7,53.2,37.8
		C307.6,39.5,324.9,35.1,339.9,31.9"/>
	<path class="st5" d="M254.9,67.4V2.1l0,0l0.3,0.1c0.2,0.1,0.5,0.2,0.8,0.3l0.5,0.2c0.2,0.1,0.4,0.2,0.6,0.2l0.5,0.2l0.6,0.2
		l0.5,0.2l0.5,0.3l0.5,0.2c0.2,0.1,0.4,0.2,0.5,0.3l0.4,0.2c0.2,0.1,0.4,0.2,0.6,0.4c0.2,0.1,0.5,0.3,0.7,0.4
		c0.1,0.1,0.3,0.2,0.5,0.3c0.1,0.1,0.3,0.2,0.4,0.3l0.5,0.3l0.4,0.3l0.4,0.3l0.4,0.3l0.4,0.3l0.4,0.3l0.4,0.4l0.4,0.3l0.4,0.4
		l0.3,0.3l0,0l0.3,0.3l0.4,0.4l0.3,0.3l0.4,0.4l0.4,0.4l0.3,0.3l0.4,0.4l0.4,0.4l0.3,0.3l0.4,0.4l0.3,0.3l0.4,0.4l0.2,0.3v0
		c0.2,0.2,0.4,0.5,0.6,0.7l0,0l0.3,0.4l0.3,0.3l0.3,0.4l0.2,0.3l0.4,0.5l0.2,0.3l0.4,0.5l0.2,0.2l0.4,0.5l0.5,0.7l0,0l0.5,0.7
		l0.1,0.1l0.4,0.6l0.1,0.2l0.4,0.5l0.2,0.3l0.3,0.4l0.3,0.4l0.2,0.3l0.4,0.5l0.1,0.2l0.5,0.6l0,0l0.5,0.7l0,0.1
		c0.4,0.5,0.8,1.1,1.1,1.6v0l0.5,0.6l0.2,0.3l0.4,0.5l0.2,0.2l0.5,0.6l0.1,0.1c0.2,0.2,0.4,0.5,0.5,0.7l0,0l0.1,0.1l0.4,0.5l0.1,0.2
		l0.4,0.5l0.2,0.2l0.4,0.4l0.2,0.2l0.4,0.4l0.2,0.2c0.1,0.1,0.3,0.3,0.4,0.4l0.2,0.2c0.2,0.2,0.4,0.4,0.6,0.6l0,0
		c0.2,0.2,0.4,0.3,0.6,0.5l0.2,0.2c0.1,0.1,0.3,0.2,0.4,0.3l0.3,0.2l0.4,0.3l0.2,0.2l0.5,0.3l0.3,0.2c0.2,0.1,0.3,0.2,0.5,0.3
		l0.3,0.1c0.2,0.1,0.5,0.3,0.7,0.4h0l0.1,0c0.2,0.1,0.5,0.2,0.7,0.3l0.3,0.1c0.2,0.1,0.4,0.1,0.5,0.2l0.3,0.1
		c0.2,0.1,0.4,0.1,0.5,0.2l0.3,0.1c0.2,0,0.4,0.1,0.5,0.2l0.4,0.1c0.2,0,0.4,0.1,0.6,0.1l0.3,0.1c0.3,0.1,0.6,0.1,0.9,0.2
		c0.3,0,0.6,0.1,1,0.1h0.1c0.3,0,0.6,0.1,0.9,0.1h0.1c0.3,0,0.6,0.1,1,0.1h0.1c0.3,0,0.6,0,1,0h0.2c0.3,0,0.7,0,1,0h0
		c0.3,0,0.7,0,1,0h0.1c0.4,0,0.7,0,1,0h0.1c0.4,0,0.7,0,1.1,0h0.1c0.4,0,0.7,0,1.1-0.1h0.1l1.1-0.1h0c0.8-0.1,1.6-0.1,2.4-0.2h0
		c1.6-0.2,3.3-0.4,5-0.7h0.1l1.1-0.2l0.2,0l0.4-0.1c0.7-0.1,1.4-0.2,2.2-0.4h0.1l1.3-0.2h0.1c2.1-0.4,4.3-0.8,6.5-1.3l0.1,0
		c0.9-0.2,1.7-0.4,2.5-0.5l0.4-0.1l0.7-0.2l0.2,0l0.5-0.1l0.7-0.2h0l0.7-0.2l0.6-0.1l0.1,0l0.7-0.2l0.5-0.1l0.2-0.1L335,33l0.3-0.1
		l0.4-0.1l0.7-0.2l0.2,0l0.5-0.1l0.7-0.2h0l0.7-0.2l0.7-0.2l0.7-0.1v35.5L254.9,67.4L254.9,67.4z M300.1,38.2c0.3,0,0.7,0,1,0
		L300.1,38.2z M326.1,34.9c0.9-0.2,1.7-0.4,2.5-0.5L326.1,34.9z"/>
	<rect x="277.3" y="260" class="st6" width="144" height="99.7"/>
	<path class="st7" d="M356.4,222.7h191.9c-6.5,11.2-15.4,23-26.5,33.7c-32.8,31.6-50.2,38.4-46.4,58.8c0.1,0.4,0.1,0.8,0.2,1.3
		H356.4L356.4,222.7L356.4,222.7z"/>
	<rect x="261.8" y="215.4" class="st8" width="106.3" height="71.4"/>
	<rect x="356.4" y="222.7" class="st9" width="11.7" height="64"/>
	<rect x="290.1" y="215.4" class="st10" width="78" height="27.1"/>
	<path class="st11" d="M389.8,222.7h158.6c3.9-6.6,6.9-13.1,9.1-19H389.8V222.7L389.8,222.7z"/>
	<rect x="151.6" y="109.1" class="st12" width="75.5" height="75.5"/>
	<rect x="79.1" y="47.6" class="st8" width="52" height="52"/>
	<rect x="143.8" y="90.9" class="st13" width="39.7" height="39.6"/>
	<rect x="209.6" y="164.6" class="st13" width="88" height="88"/>
	<rect x="50.2" y="163.7" class="st14" width="43.2" height="43.2"/>
	<rect y="115.7" class="st15" width="27.8" height="27.8"/>
	<rect x="170.9" y="222" class="st3" width="21.8" height="21.8"/>
	<path class="st16" d="M500.1,276.2H394.1v98.9h74.7c7.7-19.2,9.4-44.7,6.6-59.9C472.6,299.9,481.6,292.3,500.1,276.2"/>
	<rect x="356.4" y="260" class="st17" width="64.8" height="56.4"/>
	<path class="st18" d="M500.1,276.2H394.1v40.3h81.5c-0.1-0.4-0.1-0.9-0.2-1.3C472.6,299.9,481.6,292.3,500.1,276.2"/>
	<rect x="305.8" y="335.5" class="st19" width="120.2" height="114.7"/>
	<rect x="394.1" y="335.5" class="st20" width="31.9" height="39.6"/>
	<path class="st21" d="M468.8,375.1H347.6v108.4h56c6.6-6.6,11.9-13.9,15.5-20.9c9.9-19.8,26.6-27.2,24.8-34.1
		c-1.9-6.8-1.2-19.2,14.9-36.5C462.8,387.6,466.2,381.7,468.8,375.1"/>
	<rect x="347.6" y="375.1" class="st22" width="78.4" height="75.1"/>
	<path class="st23" d="M488.6,286.4h-44.3v-63.7h104c-6.5,11.2-15.4,23-26.5,33.7C507.8,269.9,496.5,278.9,488.6,286.4"/>
	<polyline class="st22" points="510.1,383.8 520,383.8 492.6,456.2 473.4,456.2 473.4,432.6 487.2,418.9 487.2,401.4 512.6,383.8 	
		"/>
</g>
<path class="st24" d="M424.6,298.2c-3.5-12.4-16.4-19.7-28.8-16.2c-12.4,3.5-19.7,16.4-16.2,28.8c3.5,12.4,16.4,19.7,28.8,16.2
	C420.8,323.5,428.1,310.6,424.6,298.2"/>
<path class="st24" d="M232.8,218.5c-3.8-13.7-18-21.7-31.7-17.9c-13.7,3.8-21.7,18-17.9,31.7c3.8,13.7,18,21.7,31.7,17.9
	C228.6,246.4,236.7,232.2,232.8,218.5"/>
</svg>
