<?xml version="1.0" encoding="UTF-8"?><svg id="a" xmlns="http://www.w3.org/2000/svg" viewBox="0 0 560 202"><defs><style>.b{fill:#fff;}.c{fill:#52b2c7;}.d{fill:#248db6;}</style></defs><g><path class="b" d="M168.16,85.2c0-19.02,14.12-33.51,33.51-33.51,15.88,0,27.97,9.97,31.48,24h-16.8c-2.58-5.63-7.85-9.05-14.68-9.05-10.71,0-17.63,7.75-17.63,18.56s6.92,18.56,17.63,18.56c6.83,0,12.09-3.41,14.68-9.05h16.8c-3.51,14.03-15.6,24-31.48,24-19.39,0-33.51-14.49-33.51-33.51Z"/><path class="b" d="M281.34,104.12h-24.19l-4.62,13.39h-16.62l23.45-64.62h19.76l23.45,64.62h-16.62l-4.62-13.39Zm-5.17-14.96l-6.92-20.12-6.92,20.12h13.85Z"/><path class="b" d="M376.06,52.89V117.51h-15.69v-42.65l-16.16,24.65h-1.48l-16.15-24.65v42.65h-15.69V52.89h17.82l14.77,22.16,14.77-22.16h17.82Z"/><path class="b" d="M409.58,95.08h-4.89v22.43h-15.69V52.89h28.8c13.66,0,22.16,8.12,22.16,21.6,0,10.34-4.98,16.52-12.92,19.11l16.99,23.91h-19.2l-15.23-22.43Zm6.46-27.23h-11.35v13.48h11.35c5.45,0,8.03-2.22,8.03-6.65s-2.77-6.83-8.03-6.83Z"/><path class="b" d="M494.05,104.12h-24.19l-4.62,13.39h-16.62l23.45-64.62h19.76l23.45,64.62h-16.62l-4.62-13.39Zm-5.17-14.96l-6.92-20.12-6.92,20.12h13.85Z"/></g><g><path class="b" d="M171.7,148.63c0-6.05,4.5-10.54,10.52-10.54,4.61,0,8.3,2.72,9.7,6.83h-2.6c-1.23-2.75-3.86-4.53-7.13-4.53-4.62,0-8.03,3.53-8.03,8.24s3.42,8.24,8.03,8.24c3.27,0,5.9-1.78,7.13-4.53h2.6c-1.4,4.12-5.08,6.83-9.7,6.83-6.02,0-10.52-4.5-10.52-10.55Z"/><path class="b" d="M211.29,150.82c0,4.82-3.65,8.35-8.3,8.35s-8.27-3.56-8.27-8.35,3.71-8.35,8.27-8.35,8.3,3.53,8.3,8.35Zm-14.11,0c0,3.53,2.57,6.05,5.81,6.05s5.84-2.51,5.84-6.05-2.6-6.05-5.84-6.05-5.81,2.48-5.81,6.05Z"/><path class="b" d="M238.48,148.43v10.43h-2.42v-9.99c0-2.72-1.23-4.09-3.62-4.09-3.04,0-4.53,2.6-4.53,5.84l.03,8.24h-2.45v-9.99c0-2.72-1.2-4.09-3.62-4.09-3.01,0-4.5,2.6-4.5,5.84v8.24h-2.42v-16.06h2.42v3.04c1.05-2.07,2.66-3.36,5.23-3.36s4.38,1.31,5.02,3.68c1.02-2.22,2.77-3.68,5.52-3.68,3.39,0,5.35,2.16,5.35,5.96Z"/><path class="b" d="M258.79,150.82c0,4.85-3.15,8.35-7.54,8.35-2.77,0-4.94-1.4-6.16-3.56v3.24h-2.42v-22.49h2.42v9.73c1.23-2.19,3.42-3.62,6.19-3.62,4.35,0,7.51,3.48,7.51,8.35Zm-2.45,0c0-3.5-2.28-6.05-5.52-6.05s-5.75,2.51-5.75,6.05,2.48,6.05,5.75,6.05,5.52-2.51,5.52-6.05Z"/><path class="b" d="M277.96,142.79v16.06h-2.42v-3.24c-1.26,2.16-3.42,3.56-6.19,3.56-4.38,0-7.51-3.5-7.51-8.35s3.15-8.35,7.51-8.35c2.77,0,4.97,1.43,6.19,3.62v-3.3h2.42Zm-2.39,8.03c0-3.53-2.48-6.05-5.75-6.05s-5.52,2.54-5.52,6.05,2.28,6.05,5.52,6.05,5.75-2.51,5.75-6.05Z"/><path class="b" d="M294.08,158.15c-.88,.47-2.6,1.02-4.35,1.02-3.45,0-5.75-2.22-5.75-6.45v-7.65h-3.1v-2.28h3.1v-3.86l2.42-.52v4.38h7.22v2.28h-7.22v7.54c0,2.75,1.23,4.32,3.74,4.32,1.14,0,2.31-.35,3.51-.79l.44,2.02Z"/><path class="b" d="M308.93,158.15c-.88,.47-2.6,1.02-4.35,1.02-3.45,0-5.75-2.22-5.75-6.45v-7.65h-3.1v-2.28h3.1v-3.86l2.42-.52v4.38h7.22v2.28h-7.22v7.54c0,2.75,1.23,4.32,3.74,4.32,1.14,0,2.31-.35,3.51-.79l.44,2.02Z"/><path class="b" d="M315.12,137.33c0,.93-.73,1.64-1.69,1.64s-1.69-.7-1.69-1.64,.73-1.61,1.69-1.61,1.69,.7,1.69,1.61Zm-2.92,5.46h2.42v16.06h-2.42v-16.06Z"/><path class="b" d="M332.91,148.66v10.19h-2.42v-9.73c0-2.89-1.43-4.35-4.06-4.35-3.27,0-5.08,2.31-5.08,5.84v8.24h-2.42v-16.06h2.42v3.18c1.08-2.16,2.95-3.5,5.75-3.5,3.62,0,5.81,2.28,5.81,6.19Z"/><path class="b" d="M352.54,142.79v15.89c0,4.79-2.92,7.8-7.62,7.8-3.8,0-7.07-2.02-7.86-5.78h2.51c.67,2.31,2.69,3.62,5.29,3.62,3.36,0,5.26-2.02,5.26-5.58v-3.24c-1.26,2.16-3.45,3.56-6.19,3.56-4.38,0-7.51-3.5-7.51-8.29s3.15-8.3,7.51-8.3c2.72,0,4.97,1.43,6.19,3.59v-3.27h2.42Zm-2.39,7.97c0-3.48-2.48-5.99-5.75-5.99s-5.52,2.54-5.52,5.99,2.28,5.99,5.52,5.99,5.75-2.51,5.75-5.99Z"/><path class="b" d="M378.95,152.72h-9.49l-2.42,6.13h-2.57l8.18-20.45h3.13l8.18,20.45h-2.57l-2.43-6.13Zm-.91-2.31l-3.83-9.7-3.83,9.7h7.65Z"/><path class="b" d="M400.75,148.66v10.19h-2.43v-9.73c0-2.89-1.43-4.35-4.06-4.35-3.27,0-5.08,2.31-5.08,5.84v8.24h-2.42v-16.06h2.42v3.18c1.08-2.16,2.95-3.5,5.75-3.5,3.62,0,5.81,2.28,5.81,6.19Z"/><path class="b" d="M416.35,158.15c-.88,.47-2.6,1.02-4.35,1.02-3.45,0-5.75-2.22-5.75-6.45v-7.65h-3.1v-2.28h3.1v-3.86l2.42-.52v4.38h7.22v2.28h-7.22v7.54c0,2.75,1.23,4.32,3.74,4.32,1.14,0,2.31-.35,3.51-.79l.44,2.02Z"/><path class="b" d="M422.55,137.33c0,.93-.73,1.64-1.69,1.64s-1.69-.7-1.69-1.64,.73-1.61,1.69-1.61,1.69,.7,1.69,1.61Zm-2.92,5.46h2.42v16.06h-2.42v-16.06Z"/><path class="b" d="M449.89,148.43v10.43h-2.42v-9.99c0-2.72-1.23-4.09-3.62-4.09-3.04,0-4.53,2.6-4.53,5.84l.03,8.24h-2.45v-9.99c0-2.72-1.2-4.09-3.62-4.09-3.01,0-4.5,2.6-4.5,5.84v8.24h-2.42v-16.06h2.42v3.04c1.05-2.07,2.66-3.36,5.23-3.36s4.38,1.31,5.02,3.68c1.02-2.22,2.78-3.68,5.52-3.68,3.39,0,5.34,2.16,5.34,5.96Z"/><path class="b" d="M456.99,137.33c0,.93-.73,1.64-1.69,1.64s-1.69-.7-1.69-1.64,.73-1.61,1.69-1.61,1.69,.7,1.69,1.61Zm-2.92,5.46h2.42v16.06h-2.42v-16.06Z"/><path class="b" d="M460.15,150.82c0-4.79,3.59-8.35,8.29-8.35,3.74,0,6.95,2.25,7.8,5.93h-2.51c-.76-2.28-2.8-3.68-5.29-3.68-3.39,0-5.84,2.57-5.84,6.1s2.48,6.1,5.84,6.1c2.48,0,4.53-1.43,5.29-3.68h2.51c-.88,3.74-4.12,5.93-7.8,5.93-4.7,0-8.29-3.56-8.29-8.35Z"/><path class="b" d="M488.78,142.53v2.48c-.26-.03-.61-.06-1.02-.06-3.36,0-5.7,2.19-5.7,6.31v7.59h-2.42v-16.06h2.42v3.59c.96-2.4,2.89-3.91,5.72-3.91,.38,0,.76,.03,.99,.06Z"/><path class="b" d="M507.33,150.82c0,4.82-3.65,8.35-8.3,8.35s-8.27-3.56-8.27-8.35,3.71-8.35,8.27-8.35,8.3,3.53,8.3,8.35Zm-14.11,0c0,3.53,2.57,6.05,5.81,6.05s5.84-2.51,5.84-6.05-2.6-6.05-5.84-6.05-5.81,2.48-5.81,6.05Z"/><path class="b" d="M527.11,150.82c0,4.85-3.15,8.35-7.54,8.35-2.78,0-4.94-1.4-6.16-3.56v3.24h-2.42v-22.49h2.42v9.73c1.23-2.19,3.42-3.62,6.19-3.62,4.35,0,7.51,3.48,7.51,8.35Zm-2.45,0c0-3.5-2.28-6.05-5.52-6.05s-5.75,2.51-5.75,6.05,2.48,6.05,5.75,6.05,5.52-2.51,5.52-6.05Z"/><path class="b" d="M533.71,137.33c0,.93-.73,1.64-1.69,1.64s-1.69-.7-1.69-1.64,.73-1.61,1.69-1.61,1.69,.7,1.69,1.61Zm-2.92,5.46h2.42v16.06h-2.42v-16.06Z"/><path class="b" d="M552.99,142.79v16.06h-2.42v-3.24c-1.26,2.16-3.42,3.56-6.19,3.56-4.38,0-7.51-3.5-7.51-8.35s3.15-8.35,7.51-8.35c2.78,0,4.97,1.43,6.19,3.62v-3.3h2.42Zm-2.39,8.03c0-3.53-2.48-6.05-5.75-6.05s-5.52,2.54-5.52,6.05,2.28,6.05,5.52,6.05,5.75-2.51,5.75-6.05Z"/><path class="b" d="M557.41,136.36h2.42v22.49h-2.42v-22.49Z"/><path class="b" d="M178.92,183.66h-3.97v7.92h-2.42v-20.45h8.09c4.53,0,6.92,2.63,6.92,6.31,0,3.39-2.04,5.72-5.75,6.16l6.54,7.97h-3.01l-6.4-7.92Zm-3.97-2.16h5.43c3.24,0,4.7-1.75,4.7-4.06s-1.49-4-4.7-4h-5.43v8.06Z"/><path class="b" d="M206.26,184.27h-13.76c.23,3.33,2.6,5.34,5.84,5.34,2.22,0,4.06-.93,5.02-2.8h2.51c-1.34,3.42-4.26,5.08-7.62,5.08-4.76,0-8.24-3.39-8.24-8.3s3.42-8.41,8.21-8.41,8.24,3.8,8.03,9.08Zm-13.64-2.28h11.01c-.53-2.69-2.51-4.53-5.4-4.53s-5.05,1.9-5.61,4.53Z"/><path class="b" d="M208.83,186.55h2.48c.64,2.25,2.31,3.04,5.29,3.04,2.39,0,4.15-.85,4.15-2.4s-1.78-1.9-4.73-2.63c-4.44-1.11-6.37-1.9-6.37-4.53,0-3.1,2.72-4.85,6.51-4.85s6.19,1.72,6.83,4.62h-2.45c-.61-1.64-2.16-2.31-4.32-2.31-2.6,0-4.12,.99-4.12,2.37,0,1.29,1.29,1.64,4.53,2.45,4.12,1.02,6.6,1.67,6.6,4.67,0,3.3-3.01,4.91-6.63,4.91-4.21,0-7.13-1.96-7.77-5.35Z"/><path class="b" d="M229.52,170.05c0,.93-.73,1.64-1.69,1.64s-1.69-.7-1.69-1.64,.73-1.61,1.69-1.61,1.69,.7,1.69,1.61Zm-2.92,5.46h2.42v16.06h-2.42v-16.06Z"/><path class="b" d="M232.35,186.55h2.48c.64,2.25,2.31,3.04,5.29,3.04,2.39,0,4.15-.85,4.15-2.4s-1.78-1.9-4.73-2.63c-4.44-1.11-6.37-1.9-6.37-4.53,0-3.1,2.72-4.85,6.51-4.85s6.19,1.72,6.83,4.62h-2.45c-.61-1.64-2.16-2.31-4.32-2.31-2.6,0-4.12,.99-4.12,2.37,0,1.29,1.29,1.64,4.53,2.45,4.12,1.02,6.6,1.67,6.6,4.67,0,3.3-3.01,4.91-6.63,4.91-4.21,0-7.13-1.96-7.77-5.35Z"/><path class="b" d="M261.92,190.87c-.88,.47-2.6,1.02-4.35,1.02-3.45,0-5.75-2.22-5.75-6.45v-7.65h-3.1v-2.28h3.1v-3.86l2.42-.52v4.38h7.22v2.28h-7.22v7.54c0,2.75,1.23,4.32,3.74,4.32,1.14,0,2.31-.35,3.51-.79l.44,2.02Z"/><path class="b" d="M279.97,175.51v16.06h-2.42v-3.24c-1.26,2.16-3.42,3.56-6.19,3.56-4.38,0-7.51-3.5-7.51-8.35s3.15-8.35,7.51-8.35c2.77,0,4.97,1.43,6.19,3.62v-3.3h2.42Zm-2.39,8.03c0-3.53-2.48-6.05-5.75-6.05s-5.52,2.54-5.52,6.05,2.28,6.05,5.52,6.05,5.75-2.51,5.75-6.05Z"/><path class="b" d="M298.29,181.38v10.19h-2.42v-9.73c0-2.89-1.43-4.35-4.06-4.35-3.27,0-5.08,2.31-5.08,5.84v8.24h-2.42v-16.06h2.42v3.18c1.08-2.16,2.95-3.5,5.75-3.5,3.62,0,5.81,2.28,5.81,6.19Z"/><path class="b" d="M301.8,183.54c0-4.79,3.59-8.35,8.3-8.35,3.74,0,6.95,2.25,7.8,5.93h-2.51c-.76-2.28-2.8-3.68-5.29-3.68-3.39,0-5.84,2.57-5.84,6.1s2.48,6.1,5.84,6.1c2.48,0,4.53-1.43,5.29-3.68h2.51c-.88,3.74-4.12,5.93-7.8,5.93-4.7,0-8.3-3.56-8.3-8.35Z"/><path class="b" d="M336.88,184.27h-13.76c.23,3.33,2.6,5.34,5.84,5.34,2.22,0,4.06-.93,5.02-2.8h2.51c-1.34,3.42-4.26,5.08-7.62,5.08-4.76,0-8.24-3.39-8.24-8.3s3.42-8.41,8.21-8.41,8.24,3.8,8.03,9.08Zm-13.64-2.28h11.01c-.53-2.69-2.51-4.53-5.4-4.53s-5.05,1.9-5.61,4.53Z"/><path class="b" d="M352.11,170.05c0,.93-.73,1.64-1.69,1.64s-1.69-.7-1.69-1.64,.73-1.61,1.69-1.61,1.69,.7,1.69,1.61Zm-2.92,5.46h2.42v16.06h-2.42v-16.06Z"/><path class="b" d="M369.9,181.38v10.19h-2.43v-9.73c0-2.89-1.43-4.35-4.06-4.35-3.27,0-5.08,2.31-5.08,5.84v8.24h-2.42v-16.06h2.42v3.18c1.08-2.16,2.95-3.5,5.75-3.5,3.62,0,5.81,2.28,5.81,6.19Z"/><path class="b" d="M396.13,185.44h-9.49l-2.42,6.13h-2.57l8.18-20.45h3.12l8.18,20.45h-2.57l-2.42-6.13Zm-.91-2.31l-3.83-9.7-3.83,9.7h7.65Z"/><path class="b" d="M406.77,175.42v.09h6.51v2.28h-6.51v13.79h-2.42v-13.79h-3.1v-2.28h3.1v-.2c0-4.21,2.42-6.54,5.99-6.54,1.17,0,2.45,.23,3.45,.67l-.44,2.02-.41-.12c-.79-.29-1.61-.41-2.34-.41-2.69,0-3.83,1.67-3.83,4.5Z"/><path class="b" d="M425.73,175.25v2.48c-.26-.03-.61-.06-1.02-.06-3.36,0-5.7,2.19-5.7,6.31v7.59h-2.42v-16.06h2.42v3.59c.96-2.4,2.89-3.91,5.73-3.91,.38,0,.76,.03,.99,.06Z"/><path class="b" d="M431.57,170.05c0,.93-.73,1.64-1.69,1.64s-1.69-.7-1.69-1.64,.73-1.61,1.69-1.61,1.69,.7,1.69,1.61Zm-2.92,5.46h2.42v16.06h-2.42v-16.06Z"/><path class="b" d="M434.73,183.54c0-4.79,3.59-8.35,8.29-8.35,3.74,0,6.95,2.25,7.8,5.93h-2.51c-.76-2.28-2.8-3.68-5.29-3.68-3.39,0-5.84,2.57-5.84,6.1s2.48,6.1,5.84,6.1c2.48,0,4.53-1.43,5.29-3.68h2.51c-.88,3.74-4.12,5.93-7.8,5.93-4.7,0-8.29-3.56-8.29-8.35Z"/><path class="b" d="M469.7,175.51v16.06h-2.42v-3.24c-1.26,2.16-3.42,3.56-6.19,3.56-4.38,0-7.51-3.5-7.51-8.35s3.15-8.35,7.51-8.35c2.77,0,4.97,1.43,6.19,3.62v-3.3h2.42Zm-2.4,8.03c0-3.53-2.48-6.05-5.75-6.05s-5.52,2.54-5.52,6.05,2.28,6.05,5.52,6.05,5.75-2.51,5.75-6.05Z"/></g><path class="c" d="M125.12,109.15h-5.43v-21.73h5.43c6,0,10.87-4.86,10.87-10.87s-4.86-10.87-10.87-10.87h-5.57c-.47-9.06-3.26-17.49-7.81-24.72l4.77-4.77c4.24-4.24,4.24-11.12,0-15.37-4.24-4.24-11.12-4.24-15.37,0l-4.56,4.56c-5.28-3.5-11.24-6.06-17.64-7.43v-6.6c0-6-4.86-10.87-10.87-10.87s-10.87,4.86-10.87,10.87v6.6c-6.37,1.37-12.29,3.9-17.55,7.38l-4.51-4.51c-4.24-4.24-11.12-4.24-15.37,0h0c-4.24,4.24-4.24,11.12,0,15.37l4.69,4.69c-4.59,7.25-7.39,15.71-7.87,24.81h-5.57c-6,0-10.87,4.86-10.87,10.87s4.86,10.87,10.87,10.87h5.43v21.73h-5.43c-6,0-10.87,4.86-10.87,10.87s4.86,10.87,10.87,10.87h5.43v2.72c0,10.18,2.99,19.64,8.07,27.63l-4.76,4.76c-4.24,4.24-4.24,11.12,0,15.37h0c4.24,4.24,11.12,4.24,15.37,0l4.63-4.63c5.23,3.44,11.12,5.95,17.44,7.31v6.6c0,6,4.86,10.87,10.87,10.87s10.87-4.86,10.87-10.87v-6.6c6.36-1.36,12.27-3.9,17.52-7.36l4.68,4.68c4.24,4.24,11.12,4.24,15.37,0,4.24-4.24,4.24-11.12,0-15.37l-4.84-4.84c5.05-7.98,8.02-17.41,8.02-27.55v-2.72h5.43c6,0,10.87-4.86,10.87-10.87s-4.86-10.87-10.87-10.87Zm-25.8,25.8c0,17.25-13.99,31.24-31.24,31.24s-31.24-13.99-31.24-31.24V67.05c0-17.25,13.99-31.24,31.24-31.24s31.24,13.99,31.24,31.24v67.91Z"/><path class="d" d="M80.77,101.11l4.46-4.46c3.55-3.55,3.55-9.3,0-12.85-3.55-3.55-9.3-3.55-12.85,0l-4.46,4.46-4.46-4.46c-3.55-3.55-9.3-3.55-12.85,0-3.55,3.55-3.55,9.3,0,12.85l4.46,4.46-4.46,4.46c-3.55,3.55-3.55,9.3,0,12.85h0c3.55,3.55,9.3,3.55,12.85,0l4.46-4.46,4.46,4.46c3.55,3.55,9.3,3.55,12.85,0h0c3.55-3.55,3.55-9.3,0-12.85l-4.46-4.46Z"/></svg>