<?xml version="1.0" encoding="UTF-8"?><svg id="a" xmlns="http://www.w3.org/2000/svg" viewBox="0 0 260 68"><defs><style>.b{fill:#fff;}.c{fill:#52b2c7;}.d{fill:#248db6;}</style></defs><g><path class="b" d="M60.86,35.04c0-10.91,8.1-19.22,19.22-19.22,9.11,0,16.04,5.72,18.06,13.77h-9.64c-1.48-3.23-4.5-5.19-8.42-5.19-6.14,0-10.11,4.45-10.11,10.64s3.97,10.64,10.11,10.64c3.92,0,6.94-1.96,8.42-5.19h9.64c-2.01,8.05-8.95,13.77-18.06,13.77-11.12,0-19.22-8.31-19.22-19.22Z"/><path class="b" d="M125.78,45.9h-13.87l-2.65,7.68h-9.53l13.45-37.06h11.33l13.45,37.06h-9.53l-2.65-7.68Zm-2.96-8.58l-3.97-11.54-3.97,11.54h7.94Z"/><path class="b" d="M180.11,16.51V53.57h-9V29.11l-9.27,14.14h-.85l-9.27-14.14v24.46h-9V16.51h10.22l8.47,12.71,8.47-12.71h10.22Z"/><path class="b" d="M199.33,40.71h-2.81v12.87h-9V16.51h16.52c7.84,0,12.71,4.66,12.71,12.39,0,5.93-2.86,9.48-7.41,10.96l9.74,13.71h-11.01l-8.74-12.87Zm3.71-15.62h-6.51v7.73h6.51c3.12,0,4.61-1.27,4.61-3.81s-1.59-3.92-4.61-3.92Z"/><path class="b" d="M247.78,45.9h-13.87l-2.65,7.68h-9.53l13.45-37.06h11.33l13.45,37.06h-9.53l-2.65-7.68Zm-2.96-8.58l-3.97-11.54-3.97,11.54h7.94Z"/></g><path class="c" d="M41.61,36.69h-1.81v-7.23h1.81c2,0,3.62-1.62,3.62-3.62s-1.62-3.62-3.62-3.62h-1.85c-.16-3.01-1.08-5.82-2.6-8.23l1.59-1.59c1.41-1.41,1.41-3.7,0-5.11-1.41-1.41-3.7-1.41-5.11,0l-1.52,1.52c-1.76-1.17-3.74-2.02-5.87-2.47v-2.2c0-2-1.62-3.62-3.62-3.62s-3.62,1.62-3.62,3.62v2.2c-2.12,.45-4.09,1.3-5.84,2.46l-1.5-1.5c-1.41-1.41-3.7-1.41-5.11,0h0c-1.41,1.41-1.41,3.7,0,5.11l1.56,1.56c-1.53,2.41-2.46,5.23-2.62,8.25h-1.85C1.65,22.23,.03,23.85,.03,25.84s1.62,3.62,3.62,3.62h1.81v7.23h-1.81c-2,0-3.62,1.62-3.62,3.62s1.62,3.62,3.62,3.62h1.81v.9c0,3.39,.99,6.53,2.69,9.19l-1.58,1.58c-1.41,1.41-1.41,3.7,0,5.11h0c1.41,1.41,3.7,1.41,5.11,0l1.54-1.54c1.74,1.14,3.7,1.98,5.8,2.43v2.2c0,2,1.62,3.62,3.62,3.62s3.62-1.62,3.62-3.62v-2.2c2.11-.45,4.08-1.3,5.83-2.45l1.56,1.56c1.41,1.41,3.7,1.41,5.11,0s1.41-3.7,0-5.11l-1.61-1.61c1.68-2.65,2.67-5.79,2.67-9.17v-.9h1.81c2,0,3.62-1.62,3.62-3.62s-1.62-3.62-3.62-3.62Zm-8.59,8.59c0,5.74-4.65,10.39-10.39,10.39s-10.39-4.65-10.39-10.39V22.68c0-5.74,4.65-10.39,10.39-10.39s10.39,4.65,10.39,10.39v22.59Z"/><path class="d" d="M26.85,34.01l1.49-1.49c1.18-1.18,1.18-3.09,0-4.27-1.18-1.18-3.09-1.18-4.28,0l-1.49,1.49-1.49-1.49c-1.18-1.18-3.09-1.18-4.27,0-1.18,1.18-1.18,3.09,0,4.27l1.49,1.49-1.49,1.49c-1.18,1.18-1.18,3.09,0,4.27h0c1.18,1.18,3.09,1.18,4.27,0l1.49-1.49,1.49,1.49c1.18,1.18,3.09,1.18,4.28,0h0c1.18-1.18,1.18-3.09,0-4.28l-1.49-1.49Z"/></svg>